<?xml version="1.0" encoding="utf-8"?>
<!-- Generator: Adobe Illustrator 19.1.0, SVG Export Plug-In . SVG Version: 6.00 Build 0)  -->
<svg version="1.1" id="Layer_1" xmlns="http://www.w3.org/2000/svg" xmlns:xlink="http://www.w3.org/1999/xlink" x="0px" y="0px"
	 width="296.657px" height="29.04px" viewBox="-452.828 387.683 296.657 29.04"
	 style="enable-background:new -452.828 387.683 296.657 29.04;" xml:space="preserve">
<style type="text/css">
	.st0{fill:#FFFFFF;}
</style>
<g>
	<path class="st0" d="M-442.106,416.723c-3.127,0-5.808-1.117-7.819-3.127c-2.904-2.904-2.904-6.478-2.904-11.393
		c0-4.914,0-8.489,2.904-11.393c2.011-2.011,4.691-3.127,7.819-3.127c5.361,0,9.606,3.127,10.499,9.159h-5.585
		c-0.67-2.234-2.011-4.021-4.914-4.021c-1.564,0-2.681,0.67-3.574,1.564c-1.117,1.117-1.34,2.681-1.34,8.042s0.223,6.925,1.34,8.042
		c0.894,0.894,2.011,1.564,3.574,1.564c2.904,0,4.244-1.787,4.914-4.021h5.585C-432.5,413.819-436.744,416.723-442.106,416.723z"/>
	<path class="st0" d="M-410.832,416.5l-1.787-5.138h-10.276l-1.787,5.138h-5.808l10.499-28.594h4.468l10.499,28.594H-410.832z
		 M-417.533,396.395l-3.574,10.499h7.148L-417.533,396.395z"/>
	<path class="st0" d="M-401.45,416.5v-28.594h5.585v23.679h12.957v4.914L-401.45,416.5L-401.45,416.5z"/>
	<path class="st0" d="M-378.217,416.5v-28.594h5.585v23.679h12.957v4.914L-378.217,416.5L-378.217,416.5z"/>
	<path class="st0" d="M-334.88,392.821V416.5h-5.585v-23.679h-7.372v-4.914h20.551v4.914H-334.88z"/>
	<path class="st0" d="M-306.287,413.596c-2.011,2.011-4.468,3.127-7.819,3.127s-5.808-1.117-7.819-3.127
		c-2.904-2.904-2.904-6.478-2.904-11.393c0-4.914,0-8.489,2.904-11.393c2.011-2.011,4.468-3.127,7.819-3.127
		s5.808,1.117,7.819,3.127c2.904,2.904,2.904,6.478,2.904,11.393C-303.383,407.117-303.383,410.692-306.287,413.596z
		 M-310.531,394.161c-0.894-0.894-2.011-1.564-3.574-1.564s-2.904,0.67-3.574,1.564c-1.117,1.117-1.34,2.457-1.34,8.042
		s0.223,6.925,1.34,8.042c0.894,0.894,2.011,1.564,3.574,1.564s2.681-0.67,3.574-1.564c1.117-1.117,1.34-2.457,1.34-8.042
		S-309.414,395.278-310.531,394.161z"/>
	<path class="st0" d="M-272.109,416.5l-1.787-5.138h-10.276l-1.787,5.138h-5.808l10.499-28.594h4.468l10.499,28.594H-272.109z
		 M-278.81,396.395l-3.574,10.499h7.148L-278.81,396.395z"/>
	<path class="st0" d="M-253.568,416.723c-3.127,0-5.808-1.117-7.819-3.127c-2.904-2.904-2.904-6.478-2.904-11.393
		c0-4.914,0-8.489,2.904-11.393c2.011-2.011,4.691-3.127,7.819-3.127c5.361,0,9.606,3.127,10.499,9.159h-5.585
		c-0.67-2.234-2.011-4.021-4.914-4.021c-1.564,0-2.681,0.67-3.574,1.564c-1.117,1.117-1.34,2.681-1.34,8.042s0.223,6.925,1.34,8.042
		c0.894,0.894,2.011,1.564,3.574,1.564c2.904,0,4.244-1.787,4.914-4.021h5.585C-244.186,413.819-248.43,416.723-253.568,416.723z"/>
	<path class="st0" d="M-228.102,392.821V416.5h-5.585v-23.679h-7.372v-4.914h20.551v4.914H-228.102z"/>
	<path class="st0" d="M-216.039,416.5v-28.594h5.585V416.5H-216.039z"/>
	<path class="st0" d="M-186.552,413.596c-2.011,2.011-4.468,3.127-7.819,3.127c-3.351,0-5.808-1.117-7.819-3.127
		c-2.904-2.904-2.904-6.478-2.904-11.393c0-4.914,0-8.489,2.904-11.393c2.011-2.011,4.468-3.127,7.819-3.127
		c3.351,0,5.808,1.117,7.819,3.127c2.904,2.904,2.904,6.478,2.904,11.393C-183.648,407.117-183.648,410.692-186.552,413.596z
		 M-190.573,394.161c-0.894-0.894-2.011-1.564-3.574-1.564c-1.564,0-2.904,0.67-3.574,1.564c-1.117,1.117-1.34,2.457-1.34,8.042
		s0.223,6.925,1.34,8.042c0.894,0.894,2.011,1.564,3.574,1.564c1.564,0,2.681-0.67,3.574-1.564c1.117-1.117,1.34-2.457,1.34-8.042
		S-189.679,395.278-190.573,394.161z"/>
	<path class="st0" d="M-161.086,416.5l-11.393-17.648V416.5h-5.585v-28.594h4.914l11.393,17.648v-17.648h5.585V416.5H-161.086z"/>
</g>
</svg>
