<?xml version="1.0" encoding="utf-8"?>
<!-- Generator: Adobe Illustrator 19.1.0, SVG Export Plug-In . SVG Version: 6.00 Build 0)  -->
<svg version="1.1" id="Layer_1" xmlns="http://www.w3.org/2000/svg" xmlns:xlink="http://www.w3.org/1999/xlink" x="0px" y="0px"
	 width="294px" height="23.189px" viewBox="-384.5 389.327 294 23.189" style="enable-background:new -384.5 389.327 294 23.189;"
	 xml:space="preserve">
<style type="text/css">
	.st0{fill:#FFFFFF;}
</style>
<g>
	<path class="st0" d="M-371.173,412.249l-5.864-10.395l-2.932,3.465v6.93h-4.531v-22.656h4.531v9.862l7.996-9.862h5.331
		l-7.463,9.063l7.996,13.594H-371.173L-371.173,412.249z"/>
	<path class="st0" d="M-363.177,412.249v-22.656h14.927v3.998h-10.662v5.331h9.063v3.998h-9.063v5.597h10.662v3.998h-14.927V412.249
		z"/>
	<path class="st0" d="M-335.189,402.92v9.329h-4.531v-9.329l-6.93-13.327h4.798l4.265,9.063l4.265-9.063h4.798L-335.189,402.92z"/>
	<path class="st0" d="M-301.871,412.249v-13.327l-4.265,8.529h-2.932l-4.265-8.529v13.327h-4.531v-22.656h4.265l5.864,12.261
		l5.864-12.261h4.265v22.656H-301.871z"/>
	<path class="st0" d="M-292.275,412.249v-22.656h14.926v3.998h-10.662v5.331h9.063v3.998h-9.063v5.597h10.662v3.998h-14.926V412.249
		z"/>
	<path class="st0" d="M-266.42,412.516c-3.465,0-6.131-0.8-8.263-2.932l2.932-2.932c1.333,1.333,3.465,1.866,5.597,1.866
		c2.665,0,3.998-1.066,3.998-2.932c0-0.8-0.267-1.599-0.8-1.866c-0.533-0.533-1.066-0.533-2.133-0.8l-2.665-0.266
		c-1.866-0.266-3.465-0.8-4.531-1.866c-1.066-1.066-1.599-2.665-1.599-4.531c0-3.998,2.932-6.93,7.996-6.93
		c3.198,0,5.331,0.8,7.463,2.665l-2.932,2.665c-1.333-1.333-3.198-1.599-4.798-1.599c-2.399,0-3.465,1.333-3.465,2.932
		c0,0.533,0.266,1.066,0.8,1.599c0.533,0.533,1.066,0.8,2.133,0.8l2.665,0.266c2.132,0.266,3.465,0.8,4.265,1.866
		c1.333,1.066,1.866,2.932,1.866,4.798C-258.157,410.117-261.889,412.516-266.42,412.516z"/>
	<path class="st0" d="M-247.762,412.516c-3.465,0-6.131-0.8-8.263-2.932l2.932-2.932c1.333,1.333,3.465,1.866,5.597,1.866
		c2.665,0,3.998-1.066,3.998-2.932c0-0.8-0.266-1.599-0.8-1.866c-0.533-0.533-1.066-0.533-2.132-0.8l-2.665-0.266
		c-1.866-0.266-3.465-0.8-4.531-1.866c-1.066-1.066-1.599-2.665-1.599-4.531c0-3.998,2.932-6.93,7.996-6.93
		c3.198,0,5.331,0.8,7.463,2.665l-2.932,2.665c-1.333-1.333-3.198-1.599-4.798-1.599c-2.399,0-3.465,1.333-3.465,2.932
		c0,0.533,0.266,1.066,0.8,1.599c0.533,0.533,1.066,0.8,2.132,0.8l2.665,0.266c2.132,0.266,3.465,0.8,4.265,1.866
		c1.333,1.066,1.866,2.932,1.866,4.798C-239.499,410.117-242.964,412.516-247.762,412.516z"/>
	<path class="st0" d="M-222.174,412.249l-1.333-3.998h-7.996l-1.333,3.998h-4.531l8.263-22.656h3.465l8.263,22.656H-222.174z
		 M-227.505,396.256l-2.932,8.263h5.597L-227.505,396.256z"/>
	<path class="st0" d="M-201.117,409.85c-1.866,1.866-3.998,2.665-6.397,2.665c-2.399,0-4.531-0.8-6.131-2.399
		c-2.399-2.399-2.132-5.064-2.132-9.063c0-3.998,0-6.664,2.132-9.063c1.599-1.599,3.465-2.399,6.131-2.399
		c5.331,0,7.996,3.465,8.529,7.197h-4.531c-0.533-2.132-1.866-3.198-3.998-3.198c-1.333,0-2.133,0.533-2.932,1.333
		c-0.8,1.066-1.066,2.133-1.066,6.397c0,4.265,0.266,5.597,1.066,6.397c0.533,0.8,1.599,1.066,2.932,1.066
		c1.333,0,2.399-0.533,3.198-1.333c0.8-0.8,1.066-1.866,1.066-2.932v-0.8h-4.265v-3.732h8.529v3.198
		C-198.984,406.385-199.517,408.251-201.117,409.85z"/>
	<path class="st0" d="M-194.453,412.249v-22.656h14.926v3.998h-10.662v5.331h9.063v3.998h-9.063v5.597h10.662v3.998h-14.926V412.249
		z"/>
	<path class="st0" d="M-155.537,412.249v-9.596h-7.73v9.596h-4.531v-22.656h4.531v9.329h7.73v-9.329h4.531v22.656H-155.537z"/>
	<path class="st0" d="M-145.675,412.249v-22.656h14.926v3.998h-10.662v5.331h9.063v3.998h-9.063v5.597h10.662v3.998h-14.926V412.249
		z"/>
	<path class="st0" d="M-114.223,412.249l-4.531-9.063h-3.198v9.063h-4.531v-22.656h8.796c4.531,0,7.463,3.198,7.463,6.93
		c0,3.198-1.866,5.064-4.265,5.864l5.064,9.862L-114.223,412.249L-114.223,412.249z M-117.688,393.591h-4.265v6.131h4.265
		c1.866,0,3.198-1.333,3.198-2.932C-114.489,395.19-115.822,393.591-117.688,393.591z"/>
	<path class="st0" d="M-105.427,412.249v-22.656H-90.5v3.998h-10.662v5.331h9.063v3.998h-9.063v5.597H-90.5v3.998h-14.927V412.249z"
		/>
</g>
</svg>
