<?xml version="1.0" encoding="utf-8"?>
<!-- Generator: Adobe Illustrator 19.1.0, SVG Export Plug-In . SVG Version: 6.00 Build 0)  -->
<svg version="1.1" id="Layer_1" xmlns="http://www.w3.org/2000/svg" xmlns:xlink="http://www.w3.org/1999/xlink" x="0px" y="0px"
	 width="78.115px" height="75.098px" viewBox="-343.667 369.33 78.115 75.098"
	 style="enable-background:new -343.667 369.33 78.115 75.098;" xml:space="preserve">
<style type="text/css">
	.st0{fill:#FFFFFF;}
</style>
<g>
	<g>
		<path class="st0" d="M-325.264,386.06c-1.802,0-3.346-0.643-4.504-1.802c-1.673-1.673-1.673-3.732-1.673-6.563s0-4.89,1.673-6.563
			c1.158-1.158,2.702-1.802,4.504-1.802c3.089,0,5.534,1.802,6.048,5.276h-3.217c-0.386-1.287-1.158-2.316-2.831-2.316
			c-0.901,0-1.544,0.386-2.059,0.901c-0.643,0.643-0.772,1.544-0.772,4.633s0.129,3.989,0.772,4.633
			c0.515,0.515,1.158,0.901,2.059,0.901c1.673,0,2.445-1.03,2.831-2.316h3.217C-319.731,384.387-322.176,386.06-325.264,386.06z"/>
		<path class="st0" d="M-307.248,385.931l-1.03-2.96h-5.92l-1.03,2.96h-3.346l6.048-16.472h2.574l6.048,16.472H-307.248z
			 M-311.108,374.349l-2.059,6.048h4.118L-311.108,374.349z"/>
		<path class="st0" d="M-301.843,385.931v-16.472h3.217V383.1h7.464v2.831L-301.843,385.931L-301.843,385.931z"/>
		<path class="st0" d="M-288.459,385.931v-16.472h3.217V383.1h7.464v2.831L-288.459,385.931L-288.459,385.931z"/>
	</g>
	<g>
		<path class="st0" d="M-309.95,401.475v13.641h-3.217v-13.641h-4.247v-2.831h11.839v2.831H-309.95z"/>
		<path class="st0" d="M-293.478,413.443c-1.158,1.158-2.574,1.802-4.504,1.802s-3.346-0.643-4.504-1.802
			c-1.673-1.673-1.673-3.732-1.673-6.563s0-4.89,1.673-6.563c1.158-1.158,2.574-1.802,4.504-1.802s3.346,0.643,4.504,1.802
			c1.673,1.673,1.673,3.732,1.673,6.563S-291.805,411.77-293.478,413.443z M-295.923,402.247c-0.515-0.515-1.158-0.901-2.059-0.901
			s-1.673,0.386-2.059,0.901c-0.643,0.643-0.772,1.416-0.772,4.633s0.129,3.989,0.772,4.633c0.515,0.515,1.158,0.901,2.059,0.901
			s1.544-0.386,2.059-0.901c0.643-0.643,0.772-1.416,0.772-4.633S-295.279,402.89-295.923,402.247z"/>
	</g>
	<g>
		<path class="st0" d="M-332.342,444.3l-1.03-2.96h-5.92l-1.03,2.96h-3.346l6.048-16.472h2.574l6.048,16.472H-332.342z
			 M-336.203,432.718l-2.059,6.048h4.118L-336.203,432.718z"/>
		<path class="st0" d="M-321.661,444.429c-1.802,0-3.346-0.643-4.504-1.802c-1.673-1.673-1.673-3.732-1.673-6.563
			s0-4.89,1.673-6.563c1.158-1.158,2.702-1.802,4.504-1.802c3.089,0,5.534,1.802,6.048,5.276h-3.217
			c-0.386-1.287-1.158-2.316-2.831-2.316c-0.901,0-1.544,0.386-2.059,0.901c-0.643,0.643-0.772,1.544-0.772,4.633
			s0.129,3.989,0.772,4.633c0.515,0.515,1.158,0.901,2.059,0.901c1.673,0,2.445-1.03,2.831-2.316h3.217
			C-316.256,442.756-318.701,444.429-321.661,444.429z"/>
		<path class="st0" d="M-306.99,430.659V444.3h-3.217v-13.641h-4.247v-2.831h11.839v2.831H-306.99z"/>
		<path class="st0" d="M-300.041,444.3v-16.472h3.217V444.3H-300.041z"/>
		<path class="st0" d="M-283.054,442.627c-1.158,1.158-2.574,1.802-4.504,1.802c-1.93,0-3.346-0.643-4.504-1.802
			c-1.673-1.673-1.673-3.732-1.673-6.563s0-4.89,1.673-6.563c1.158-1.158,2.574-1.802,4.504-1.802c1.93,0,3.346,0.643,4.504,1.802
			c1.673,1.673,1.673,3.732,1.673,6.563S-281.381,440.954-283.054,442.627z M-285.37,431.431c-0.515-0.515-1.158-0.901-2.059-0.901
			c-0.901,0-1.673,0.386-2.059,0.901c-0.643,0.643-0.772,1.416-0.772,4.633s0.129,3.989,0.772,4.633
			c0.515,0.515,1.158,0.901,2.059,0.901c0.901,0,1.544-0.386,2.059-0.901c0.643-0.643,0.772-1.416,0.772-4.633
			S-284.855,432.074-285.37,431.431z"/>
		<path class="st0" d="M-268.383,444.3l-6.563-10.167V444.3h-3.217v-16.472h2.831l6.563,10.167v-10.167h3.217V444.3H-268.383z"/>
	</g>
</g>
</svg>
