<?xml version="1.0" encoding="utf-8"?>
<!-- Generator: Adobe Illustrator 19.1.0, SVG Export Plug-In . SVG Version: 6.00 Build 0)  -->
<svg version="1.1" id="Layer_1" xmlns="http://www.w3.org/2000/svg" xmlns:xlink="http://www.w3.org/1999/xlink" x="0px" y="0px"
	 width="95.304px" height="71.208px" viewBox="-550.352 366.778 95.304 71.208"
	 style="enable-background:new -550.352 366.778 95.304 71.208;" xml:space="preserve">
<style type="text/css">
	.st0{fill:#FFFFFF;}
</style>
<g>
	<path class="st0" d="M-512.8,382.387l-4.04-7.162l-2.02,2.387v4.774h-3.122v-15.609h3.122v6.794l5.509-6.794h3.673l-5.142,6.243
		l5.509,9.365H-512.8z"/>
	<path class="st0" d="M-507.291,382.387v-15.609h10.283v2.754h-7.345v3.673h6.243v2.754h-6.243v3.856h7.345v2.754h-10.283V382.387z"
		/>
	<path class="st0" d="M-488.01,375.96v6.427h-3.122v-6.427l-4.774-9.181h3.305l2.938,6.243l2.938-6.243h3.305L-488.01,375.96z"/>
</g>
<g>
	<path class="st0" d="M-539.334,410.187v-9.181l-2.938,5.876h-2.02l-2.938-5.876v9.181h-3.122v-15.609h2.938l4.04,8.447l4.04-8.447
		h2.938v15.609H-539.334z"/>
	<path class="st0" d="M-532.723,410.187v-15.609h10.283v2.754h-7.345v3.673h6.243v2.754h-6.243v3.856h7.345v2.754h-10.283V410.187z"
		/>
	<path class="st0" d="M-514.911,410.37c-2.387,0-4.223-0.551-5.693-2.02l2.02-2.02c0.918,0.918,2.387,1.285,3.856,1.285
		c1.836,0,2.754-0.734,2.754-2.02c0-0.551-0.184-1.102-0.551-1.285c-0.367-0.367-0.734-0.367-1.469-0.551l-1.836-0.184
		c-1.285-0.184-2.387-0.551-3.122-1.285c-0.735-0.735-1.102-1.836-1.102-3.122c0-2.754,2.02-4.774,5.509-4.774
		c2.204,0,3.673,0.551,5.142,1.836l-2.02,1.836c-0.918-0.918-2.204-1.102-3.305-1.102c-1.653,0-2.387,0.918-2.387,2.02
		c0,0.367,0.184,0.735,0.551,1.102s0.734,0.551,1.469,0.551l1.836,0.184c1.469,0.184,2.387,0.551,2.938,1.285
		c0.918,0.734,1.285,2.02,1.285,3.305C-509.219,408.718-511.79,410.37-514.911,410.37z"/>
	<path class="st0" d="M-502.057,410.37c-2.387,0-4.223-0.551-5.693-2.02l2.02-2.02c0.918,0.918,2.387,1.285,3.856,1.285
		c1.836,0,2.754-0.734,2.754-2.02c0-0.551-0.184-1.102-0.551-1.285c-0.367-0.367-0.735-0.367-1.469-0.551l-1.836-0.184
		c-1.285-0.184-2.387-0.551-3.122-1.285c-0.735-0.735-1.102-1.836-1.102-3.122c0-2.754,2.02-4.774,5.509-4.774
		c2.204,0,3.673,0.551,5.142,1.836l-2.02,1.836c-0.918-0.918-2.204-1.102-3.305-1.102c-1.653,0-2.387,0.918-2.387,2.02
		c0,0.367,0.184,0.735,0.551,1.102c0.367,0.367,0.734,0.551,1.469,0.551l1.836,0.184c1.469,0.184,2.387,0.551,2.938,1.285
		c0.918,0.734,1.285,2.02,1.285,3.305C-496.365,408.718-498.752,410.37-502.057,410.37z"/>
	<path class="st0" d="M-484.429,410.187l-0.918-2.754h-5.509l-0.918,2.754h-3.122l5.693-15.609h2.387l5.693,15.609H-484.429z
		 M-488.101,399.169l-2.02,5.693h3.856L-488.101,399.169z"/>
	<path class="st0" d="M-469.922,408.534c-1.285,1.285-2.754,1.836-4.407,1.836s-3.122-0.551-4.223-1.653
		c-1.653-1.653-1.469-3.489-1.469-6.243s0-4.591,1.469-6.243c1.102-1.102,2.387-1.653,4.223-1.653c3.673,0,5.509,2.387,5.876,4.958
		h-3.122c-0.367-1.469-1.285-2.204-2.754-2.204c-0.918,0-1.469,0.367-2.02,0.918c-0.551,0.734-0.734,1.469-0.734,4.407
		c0,2.938,0.184,3.856,0.734,4.407c0.367,0.551,1.102,0.735,2.02,0.735s1.653-0.367,2.204-0.918c0.551-0.551,0.734-1.285,0.734-2.02
		v-0.551h-2.938v-2.571h5.876v2.204C-468.453,406.147-468.82,407.432-469.922,408.534z"/>
	<path class="st0" d="M-465.331,410.187v-15.609h10.283v2.754h-7.345v3.673h6.243v2.754h-6.243v3.856h7.345v2.754h-10.283V410.187z"
		/>
</g>
<g>
	<path class="st0" d="M-520.879,437.803v-6.611h-5.325v6.611h-3.122v-15.609h3.122v6.427h5.325v-6.427h3.122v15.609H-520.879z"/>
	<path class="st0" d="M-514.085,437.803v-15.609h10.283v2.754h-7.345v3.673h6.243v2.754h-6.243v3.856h7.345v2.754h-10.283V437.803z"
		/>
	<path class="st0" d="M-492.417,437.803l-3.122-6.243h-2.204v6.243h-3.122v-15.609h6.06c3.122,0,5.142,2.204,5.142,4.774
		c0,2.204-1.285,3.489-2.938,4.04l3.489,6.794L-492.417,437.803L-492.417,437.803z M-494.804,424.949h-2.938v4.223h2.938
		c1.285,0,2.204-0.918,2.204-2.02C-492.6,426.05-493.519,424.949-494.804,424.949z"/>
	<path class="st0" d="M-486.357,437.803v-15.609h10.283v2.754h-7.345v3.673h6.243v2.754h-6.243v3.856h7.345v2.754h-10.283V437.803z"
		/>
</g>
</svg>
