<?xml version="1.0" encoding="utf-8"?>
<!-- Generator: Adobe Illustrator 19.1.0, SVG Export Plug-In . SVG Version: 6.00 Build 0)  -->
<svg version="1.1" id="Layer_1" xmlns="http://www.w3.org/2000/svg" xmlns:xlink="http://www.w3.org/1999/xlink" x="0px" y="0px"
	 width="26.1px" height="6.2px" viewBox="-1219.9 785.5 26.1 6.2" style="enable-background:new -1219.9 785.5 26.1 6.2;"
	 xml:space="preserve">
<style type="text/css">
	.st0{fill:#FFFFFF;}
</style>
<path class="st0" d="M-1216.3,789.7c-0.2,0.1-0.4,0.2-0.6,0.2c-0.3,0-0.5-0.1-0.7-0.3s-0.3-0.5-0.3-0.9c0-0.4,0.1-0.7,0.3-1
	c0.2-0.2,0.5-0.3,0.8-0.3c0.2,0,0.4,0.1,0.6,0.2c0.2,0.1,0.3,0.3,0.4,0.5l0.5-0.1c-0.1-0.3-0.2-0.5-0.5-0.7
	c-0.2-0.2-0.5-0.3-0.9-0.3c-0.3,0-0.6,0.1-0.9,0.2s-0.4,0.3-0.6,0.6c-0.1,0.3-0.2,0.6-0.2,0.9c0,0.5,0.2,1,0.4,1.3
	c0.3,0.3,0.7,0.5,1.2,0.5c0.4,0,0.7-0.1,1-0.3c0.3-0.2,0.4-0.5,0.5-0.8l-0.5-0.1C-1216,789.4-1216.1,789.6-1216.3,789.7
	L-1216.3,789.7z M-1215.4,785.9c-0.5-0.3-1-0.4-1.5-0.4s-1,0.1-1.5,0.4s-0.9,0.6-1.1,1.1c-0.3,0.5-0.4,1-0.4,1.5s0.1,1,0.4,1.5
	s0.7,0.9,1.1,1.1c0.5,0.3,1,0.4,1.5,0.4s1-0.1,1.5-0.4s0.9-0.6,1.1-1.1c0.3-0.5,0.4-1,0.4-1.5s-0.1-1-0.4-1.5
	C-1214.5,786.6-1214.9,786.2-1215.4,785.9L-1215.4,785.9z M-1214.7,789.9c-0.2,0.4-0.5,0.7-0.9,0.9c-0.4,0.2-0.8,0.3-1.3,0.3
	c-0.4,0-0.9-0.1-1.3-0.3c-0.4-0.2-0.7-0.5-1-0.9c-0.2-0.4-0.3-0.8-0.3-1.3c0-0.4,0.1-0.9,0.3-1.3c0.2-0.4,0.6-0.7,1-0.9
	c0.4-0.2,0.8-0.3,1.3-0.3c0.4,0,0.8,0.1,1.3,0.3c0.4,0.2,0.7,0.5,1,0.9c0.2,0.4,0.3,0.8,0.3,1.3
	C-1214.4,789.1-1214.5,789.5-1214.7,789.9z M-1210.1,790.5c0.1-0.1,0.4-0.4,0.8-0.8c0.5-0.4,0.9-0.8,1.1-1.1s0.4-0.5,0.5-0.7
	c0.1-0.2,0.1-0.5,0.1-0.7c0-0.5-0.2-0.9-0.5-1.2c-0.3-0.3-0.8-0.5-1.4-0.5c-0.6,0-1,0.1-1.4,0.4c-0.3,0.3-0.5,0.7-0.6,1.3l0.8,0.1
	c0-0.4,0.1-0.7,0.3-0.9c0.2-0.2,0.5-0.3,0.8-0.3s0.6,0.1,0.8,0.3c0.2,0.2,0.3,0.4,0.3,0.7c0,0.3-0.1,0.6-0.3,0.9
	c-0.2,0.3-0.7,0.7-1.3,1.3c-0.4,0.3-0.7,0.6-1,0.9c-0.2,0.3-0.4,0.5-0.5,0.8c-0.1,0.2-0.1,0.3-0.1,0.5h3.9v-0.7h-2.9
	C-1210.4,790.8-1210.3,790.6-1210.1,790.5L-1210.1,790.5z M-1203.2,790.4c0.1-0.4,0.2-1,0.2-1.7c0-0.6,0-1.1-0.1-1.4
	c-0.1-0.4-0.2-0.6-0.4-0.9s-0.4-0.4-0.6-0.6c-0.2-0.1-0.5-0.2-0.8-0.2c-0.4,0-0.8,0.1-1.1,0.4c-0.3,0.3-0.5,0.6-0.6,1
	c-0.1,0.4-0.2,1-0.2,1.7c0,1.1,0.2,1.9,0.6,2.4c0.3,0.4,0.8,0.6,1.4,0.6c0.4,0,0.8-0.1,1.1-0.4
	C-1203.5,791.1-1203.3,790.8-1203.2,790.4L-1203.2,790.4z M-1204.9,791.1c-0.3,0-0.6-0.2-0.8-0.5c-0.2-0.3-0.3-1-0.3-2
	s0.1-1.6,0.4-2c0.2-0.3,0.5-0.4,0.8-0.4c0.3,0,0.6,0.2,0.9,0.5c0.2,0.3,0.3,1,0.3,2s-0.1,1.6-0.3,2
	C-1204.3,791-1204.5,791.1-1204.9,791.1L-1204.9,791.1z M-1200.2,787v4.7h0.7v-6h-0.5c-0.1,0.3-0.3,0.5-0.6,0.8
	c-0.3,0.3-0.7,0.5-1.1,0.7v0.7c0.2-0.1,0.5-0.2,0.8-0.4C-1200.7,787.3-1200.4,787.1-1200.2,787L-1200.2,787z M-1195.7,791.7
	c0.4,0,0.7-0.1,1-0.3c0.3-0.2,0.5-0.4,0.7-0.7s0.2-0.7,0.2-1c0-0.6-0.2-1-0.5-1.4c-0.3-0.4-0.8-0.5-1.2-0.5c-0.3,0-0.5,0.1-0.8,0.2
	c-0.3,0.1-0.5,0.3-0.6,0.6c0-0.6,0.1-1.1,0.2-1.4c0.1-0.3,0.3-0.6,0.5-0.7c0.2-0.1,0.4-0.2,0.6-0.2c0.3,0,0.5,0.1,0.7,0.3
	c0.1,0.1,0.2,0.3,0.3,0.6l0.7-0.1c-0.1-0.5-0.2-0.8-0.5-1.1c-0.3-0.3-0.7-0.4-1.2-0.4c-0.6,0-1.1,0.2-1.5,0.7s-0.6,1.4-0.6,2.5
	c0,1,0.2,1.8,0.6,2.2C-1196.8,791.5-1196.3,791.7-1195.7,791.7L-1195.7,791.7z M-1196.6,788.8c0.2-0.2,0.5-0.4,0.8-0.4
	c0.3,0,0.6,0.1,0.8,0.4c0.2,0.2,0.3,0.6,0.3,1c0,0.4-0.1,0.8-0.3,1c-0.2,0.2-0.5,0.4-0.8,0.4c-0.2,0-0.4-0.1-0.6-0.2
	c-0.2-0.1-0.3-0.3-0.5-0.5c-0.1-0.2-0.2-0.5-0.2-0.7C-1196.9,789.3-1196.8,789-1196.6,788.8L-1196.6,788.8z"/>
</svg>
