<?xml version="1.0" encoding="utf-8"?>
<!-- Generator: Adobe Illustrator 19.1.0, SVG Export Plug-In . SVG Version: 6.00 Build 0)  -->
<svg version="1.1" id="Layer_1" xmlns="http://www.w3.org/2000/svg" xmlns:xlink="http://www.w3.org/1999/xlink" x="0px" y="0px"
	 width="110.3px" height="8.7px" viewBox="-1595.65 1189.4 110.3 8.7" style="enable-background:new -1595.65 1189.4 110.3 8.7;"
	 xml:space="preserve">
<style type="text/css">
	.st0{fill:#FFFFFF;}
</style>
<g>
	<path class="st0" d="M-1590.65,1198l-2.2-3.9l-1.1,1.3v2.6h-1.7v-8.5h1.7v3.7l3-3.7h2l-2.8,3.4l3,5.1H-1590.65L-1590.65,1198z"/>
	<path class="st0" d="M-1587.65,1198v-8.5h5.6v1.5h-4v2h3.4v1.5h-3.4v2.1h4v1.5h-5.6V1198z"/>
	<path class="st0" d="M-1577.15,1194.5v3.5h-1.7v-3.5l-2.6-5h1.8l1.6,3.4l1.6-3.4h1.8L-1577.15,1194.5z"/>
	<path class="st0" d="M-1564.65,1198v-5l-1.6,3.2h-1.1l-1.6-3.2v5h-1.7v-8.5h1.6l2.2,4.6l2.2-4.6h1.6v8.5H-1564.65z"/>
	<path class="st0" d="M-1561.05,1198v-8.5h5.6v1.5h-4v2h3.4v1.5h-3.4v2.1h4v1.5h-5.6V1198z"/>
	<path class="st0" d="M-1551.35,1198.1c-1.3,0-2.3-0.3-3.1-1.1l1.1-1.1c0.5,0.5,1.3,0.7,2.1,0.7c1,0,1.5-0.4,1.5-1.1
		c0-0.3-0.1-0.6-0.3-0.7c-0.2-0.2-0.4-0.2-0.8-0.3l-1-0.1c-0.7-0.1-1.3-0.3-1.7-0.7c-0.4-0.4-0.6-1-0.6-1.7c0-1.5,1.1-2.6,3-2.6
		c1.2,0,2,0.3,2.8,1l-1.1,1c-0.5-0.5-1.2-0.6-1.8-0.6c-0.9,0-1.3,0.5-1.3,1.1c0,0.2,0.1,0.4,0.3,0.6c0.2,0.2,0.4,0.3,0.8,0.3l1,0.1
		c0.8,0.1,1.3,0.3,1.6,0.7c0.5,0.4,0.7,1.1,0.7,1.8C-1548.25,1197.2-1549.65,1198.1-1551.35,1198.1z"/>
	<path class="st0" d="M-1544.35,1198.1c-1.3,0-2.3-0.3-3.1-1.1l1.1-1.1c0.5,0.5,1.3,0.7,2.1,0.7c1,0,1.5-0.4,1.5-1.1
		c0-0.3-0.1-0.6-0.3-0.7c-0.2-0.2-0.4-0.2-0.8-0.3l-1-0.1c-0.7-0.1-1.3-0.3-1.7-0.7c-0.4-0.4-0.6-1-0.6-1.7c0-1.5,1.1-2.6,3-2.6
		c1.2,0,2,0.3,2.8,1l-1.1,1c-0.5-0.5-1.2-0.6-1.8-0.6c-0.9,0-1.3,0.5-1.3,1.1c0,0.2,0.1,0.4,0.3,0.6c0.2,0.2,0.4,0.3,0.8,0.3l1,0.1
		c0.8,0.1,1.3,0.3,1.6,0.7c0.5,0.4,0.7,1.1,0.7,1.8C-1541.25,1197.2-1542.55,1198.1-1544.35,1198.1z"/>
	<path class="st0" d="M-1534.75,1198l-0.5-1.5h-3l-0.5,1.5h-1.7l3.1-8.5h1.3l3.1,8.5H-1534.75z M-1536.75,1192l-1.1,3.1h2.1
		L-1536.75,1192z"/>
	<path class="st0" d="M-1526.85,1197.1c-0.7,0.7-1.5,1-2.4,1s-1.7-0.3-2.3-0.9c-0.9-0.9-0.8-1.9-0.8-3.4s0-2.5,0.8-3.4
		c0.6-0.6,1.3-0.9,2.3-0.9c2,0,3,1.3,3.2,2.7h-1.7c-0.2-0.8-0.7-1.2-1.5-1.2c-0.5,0-0.8,0.2-1.1,0.5c-0.3,0.4-0.4,0.8-0.4,2.4
		c0,1.6,0.1,2.1,0.4,2.4c0.2,0.3,0.6,0.4,1.1,0.4s0.9-0.2,1.2-0.5c0.3-0.3,0.4-0.7,0.4-1.1v-0.3h-1.6v-1.4h3.2v1.2
		C-1526.05,1195.8-1526.25,1196.5-1526.85,1197.1z"/>
	<path class="st0" d="M-1524.35,1198v-8.5h5.6v1.5h-4v2h3.4v1.5h-3.4v2.1h4v1.5h-5.6V1198z"/>
	<path class="st0" d="M-1509.75,1198v-3.6h-2.9v3.6h-1.7v-8.5h1.7v3.5h2.9v-3.5h1.7v8.5H-1509.75z"/>
	<path class="st0" d="M-1506.05,1198v-8.5h5.6v1.5h-4v2h3.4v1.5h-3.4v2.1h4v1.5h-5.6V1198z"/>
	<path class="st0" d="M-1494.25,1198l-1.7-3.4h-1.2v3.4h-1.7v-8.5h3.3c1.7,0,2.8,1.2,2.8,2.6c0,1.2-0.7,1.9-1.6,2.2l1.9,3.7
		H-1494.25L-1494.25,1198z M-1495.55,1191h-1.6v2.3h1.6c0.7,0,1.2-0.5,1.2-1.1S-1494.85,1191-1495.55,1191z"/>
	<path class="st0" d="M-1490.95,1198v-8.5h5.6v1.5h-4v2h3.4v1.5h-3.4v2.1h4v1.5h-5.6V1198z"/>
</g>
</svg>
