<?xml version="1.0" encoding="utf-8"?>
<!-- Generator: Adobe Illustrator 19.1.0, SVG Export Plug-In . SVG Version: 6.00 Build 0)  -->
<svg version="1.1" id="Layer_1" xmlns="http://www.w3.org/2000/svg" xmlns:xlink="http://www.w3.org/1999/xlink" x="0px" y="0px"
	 width="132.8px" height="13px" viewBox="-1585.4 1182.55 132.8 13" style="enable-background:new -1585.4 1182.55 132.8 13;"
	 xml:space="preserve">
<style type="text/css">
	.st0{fill:#FFFFFF;}
</style>
<g>
	<path class="st0" d="M-1580.6,1195.55c-1.4,0-2.6-0.5-3.5-1.4c-1.3-1.3-1.3-2.9-1.3-5.1s0-3.8,1.3-5.1c0.9-0.9,2.1-1.4,3.5-1.4
		c2.4,0,4.3,1.4,4.7,4.1h-2.5c-0.3-1-0.9-1.8-2.2-1.8c-0.7,0-1.2,0.3-1.6,0.7c-0.5,0.5-0.6,1.2-0.6,3.6s0.1,3.1,0.6,3.6
		c0.4,0.4,0.9,0.7,1.6,0.7c1.3,0,1.9-0.8,2.2-1.8h2.5C-1576.3,1194.25-1578.2,1195.55-1580.6,1195.55z"/>
	<path class="st0" d="M-1566.6,1195.45l-0.8-2.3h-4.6l-0.8,2.3h-2.6l4.7-12.8h2l4.7,12.8H-1566.6z M-1569.6,1186.45l-1.6,4.7h3.2
		L-1569.6,1186.45z"/>
	<path class="st0" d="M-1562.4,1195.45v-12.8h2.5v10.6h5.8v2.2H-1562.4L-1562.4,1195.45z"/>
	<path class="st0" d="M-1552,1195.45v-12.8h2.5v10.6h5.8v2.2H-1552L-1552,1195.45z"/>
	<path class="st0" d="M-1532.6,1184.85v10.6h-2.5v-10.6h-3.3v-2.2h9.2v2.2H-1532.6z"/>
	<path class="st0" d="M-1519.8,1194.15c-0.9,0.9-2,1.4-3.5,1.4s-2.6-0.5-3.5-1.4c-1.3-1.3-1.3-2.9-1.3-5.1s0-3.8,1.3-5.1
		c0.9-0.9,2-1.4,3.5-1.4s2.6,0.5,3.5,1.4c1.3,1.3,1.3,2.9,1.3,5.1S-1518.5,1192.85-1519.8,1194.15z M-1521.7,1185.45
		c-0.4-0.4-0.9-0.7-1.6-0.7s-1.3,0.3-1.6,0.7c-0.5,0.5-0.6,1.1-0.6,3.6s0.1,3.1,0.6,3.6c0.4,0.4,0.9,0.7,1.6,0.7s1.2-0.3,1.6-0.7
		c0.5-0.5,0.6-1.1,0.6-3.6S-1521.2,1185.95-1521.7,1185.45z"/>
	<path class="st0" d="M-1504.5,1195.45l-0.8-2.3h-4.6l-0.8,2.3h-2.6l4.7-12.8h2l4.7,12.8H-1504.5z M-1507.5,1186.45l-1.6,4.7h3.2
		L-1507.5,1186.45z"/>
	<path class="st0" d="M-1496.2,1195.55c-1.4,0-2.6-0.5-3.5-1.4c-1.3-1.3-1.3-2.9-1.3-5.1s0-3.8,1.3-5.1c0.9-0.9,2.1-1.4,3.5-1.4
		c2.4,0,4.3,1.4,4.7,4.1h-2.5c-0.3-1-0.9-1.8-2.2-1.8c-0.7,0-1.2,0.3-1.6,0.7c-0.5,0.5-0.6,1.2-0.6,3.6s0.1,3.1,0.6,3.6
		c0.4,0.4,0.9,0.7,1.6,0.7c1.3,0,1.9-0.8,2.2-1.8h2.5C-1492,1194.25-1493.9,1195.55-1496.2,1195.55z"/>
	<path class="st0" d="M-1484.8,1184.85v10.6h-2.5v-10.6h-3.3v-2.2h9.2v2.2H-1484.8z"/>
	<path class="st0" d="M-1479.4,1195.45v-12.8h2.5v12.8H-1479.4z"/>
	<path class="st0" d="M-1466.2,1194.15c-0.9,0.9-2,1.4-3.5,1.4s-2.6-0.5-3.5-1.4c-1.3-1.3-1.3-2.9-1.3-5.1s0-3.8,1.3-5.1
		c0.9-0.9,2-1.4,3.5-1.4s2.6,0.5,3.5,1.4c1.3,1.3,1.3,2.9,1.3,5.1S-1464.9,1192.85-1466.2,1194.15z M-1468,1185.45
		c-0.4-0.4-0.9-0.7-1.6-0.7s-1.3,0.3-1.6,0.7c-0.5,0.5-0.6,1.1-0.6,3.6s0.1,3.1,0.6,3.6c0.4,0.4,0.9,0.7,1.6,0.7s1.2-0.3,1.6-0.7
		c0.5-0.5,0.6-1.1,0.6-3.6S-1467.6,1185.95-1468,1185.45z"/>
	<path class="st0" d="M-1454.8,1195.45l-5.1-7.9v7.9h-2.5v-12.8h2.2l5.1,7.9v-7.9h2.5v12.8H-1454.8z"/>
</g>
</svg>
